<svg xmlns="http://www.w3.org/2000/svg" width="117" height="25" fill="none" viewBox="0 0 117 25"><rect width="117" height="25" fill="#E5E5E5"/><rect width="390" height="57" fill="#fff" transform="translate(-12 -16)"/><path fill="#DD2D4A" d="M16.8831 20.3057C16.8831 21.2467 17.3627 21.8562 18.3219 22.1343C18.0859 22.9229 17.5112 23.5305 16.5976 23.9571C15.8287 24.319 15.0237 24.5 14.1825 24.5C13.3413 24.5 12.7018 24.3876 12.2641 24.1629C11.8264 23.9381 11.4895 23.6448 11.2535 23.2829C10.8729 22.7305 10.6825 21.9305 10.6825 20.8829C10.6825 20.2657 10.8519 19.1038 11.1907 17.3971L11.6417 14.9629C12.0034 13.1076 12.1842 11.839 12.1842 11.1571C12.1842 9.96095 11.853 9.36286 11.1907 9.36286C10.3609 9.36286 9.67957 9.97048 9.14668 11.1857C8.93353 11.6581 8.75272 12.2448 8.60428 12.9457L6.42894 23.86L0 24.5L4.51054 1.46L10.9338 0.820001L10.6825 2.1C10.0849 5.38381 9.52922 7.5819 9.01536 8.69429C10.2106 7.49809 11.9063 6.9 14.1026 6.9C16.4244 6.9 17.7985 7.66762 18.2248 9.20286C18.3733 9.69428 18.4475 10.1533 18.4475 10.58C18.4475 11.0067 18.4323 11.3857 18.4018 11.7171C18.3714 12.0486 18.3029 12.5114 18.1963 13.1057L17.7795 15.4143L17.043 19.0257C16.9364 19.5171 16.8831 19.9438 16.8831 20.3057V20.3057ZM28.5877 22.1C27.9254 23.7 26.5398 24.5 24.4311 24.5C23.3425 24.5 22.4575 24.1267 21.7762 23.38C21.2014 22.7171 20.914 22.0562 20.914 21.3971C20.914 19.6676 21.308 17.1171 22.0959 13.7457L23.2778 7.54L29.7695 6.9L27.8169 17.0143C27.4553 18.5914 27.2745 19.6581 27.2745 20.2143C27.2745 21.4295 27.7122 22.0581 28.5877 22.1V22.1ZM23.8544 3.09429C23.8544 2.26 24.2008 1.62 24.8936 1.17429C25.5863 0.724762 26.4333 0.5 27.4343 0.5C28.4354 0.5 29.2404 0.724762 29.8495 1.17429C30.4547 1.62 30.7573 2.26 30.7573 3.09429C30.7573 3.92476 30.4223 4.55333 29.7524 4.98C29.0825 5.40667 28.2451 5.62 27.2402 5.62C26.2391 5.62 25.4246 5.40667 24.7965 4.98C24.1685 4.55333 23.8544 3.92476 23.8544 3.09429V3.09429ZM54.3263 24.5C51.7455 24.5 50.4552 23.4981 50.4552 21.4943C50.4552 20.6181 50.6417 19.3324 51.0147 17.6371C51.3877 15.9419 51.639 14.7514 51.7684 14.0657C52.0653 12.5114 52.2137 11.4886 52.2137 10.9971C52.2137 9.90762 51.8083 9.36286 50.9976 9.36286C50.4647 9.36286 49.9432 9.73047 49.4332 10.4657C48.9193 11.2048 48.5463 12.3095 48.3141 13.78L46.3329 23.86L40.0981 24.5L41.8224 15.7971C42.0127 14.8371 42.1935 13.8124 42.3648 12.7229C42.5361 11.6371 42.6217 11.0086 42.6217 10.8371C42.6217 9.85429 42.2601 9.36286 41.5369 9.36286C41.0459 9.36286 40.5339 9.72667 40.001 10.4543C39.4681 11.1781 39.0513 12.2867 38.7506 13.78L36.8037 23.86L30.5061 24.5L33.8633 7.54L39.0704 6.9L38.528 10.1343C39.0837 8.98 39.8735 8.15333 40.8974 7.65429C41.9175 7.15143 43.2269 6.9 44.8256 6.9C45.7429 6.9 46.5004 7.12476 47.098 7.57429C47.6956 8.02 48.0895 8.60667 48.2798 9.33429C48.6414 8.58762 49.2866 7.99524 50.2154 7.55714C51.1441 7.11905 52.1776 6.9 53.3157 6.9C54.4576 6.9 55.3102 7.0219 55.8735 7.26571C56.4407 7.51333 56.8936 7.83905 57.2324 8.24286C57.8072 8.98952 58.0945 10.0467 58.0945 11.4143C58.0945 12.7552 57.8072 14.8238 57.2324 17.62C56.9355 18.9838 56.7871 19.9171 56.7871 20.42C56.7871 20.9229 56.9298 21.3229 57.2153 21.62C57.5046 21.9171 57.8624 22.0886 58.2887 22.1343C58.0755 22.8581 57.6016 23.4333 56.867 23.86C56.1324 24.2867 55.2855 24.5 54.3263 24.5V24.5ZM68.4231 22.1C67.7646 23.7 66.3791 24.5 64.2666 24.5C63.1817 24.5 62.2968 24.1267 61.6116 23.38C61.0369 22.7171 60.7495 22.0562 60.7495 21.3971C60.7495 19.6676 61.1434 17.1171 61.9314 13.7457L63.1189 7.54L69.605 6.9L67.658 17.0143C67.2964 18.5914 67.1156 19.6581 67.1156 20.2143C67.1156 21.4295 67.5514 22.0581 68.4231 22.1V22.1ZM63.6899 3.09429C63.6899 2.26 64.0363 1.62 64.729 1.17429C65.4218 0.724762 66.2706 0.5 67.2755 0.5C68.2766 0.5 69.0797 0.724762 69.6849 1.17429C70.2939 1.62 70.5984 2.26 70.5984 3.09429C70.5984 3.92476 70.2635 4.55333 69.5936 4.98C68.9198 5.40667 68.0824 5.62 67.0813 5.62C66.0803 5.62 65.2657 5.40667 64.6377 4.98C64.0058 4.55333 63.6899 3.92476 63.6899 3.09429V3.09429ZM71.6547 20.66C71.6547 20.0848 71.8031 19.0714 72.1 17.62L73.7958 8.98H71.9116L72.0372 8.02C74.5951 7.25048 77.1111 5.92857 79.5852 4.05429H81.1154L80.3503 7.54H82.8454L82.5542 8.98H80.0934L78.4662 17.62C78.1883 18.9419 78.0494 19.8276 78.0494 20.2771C78.0494 21.3019 78.4966 21.921 79.3911 22.1343C79.178 22.8581 78.6869 23.4333 77.9181 23.86C77.153 24.2867 76.2261 24.5 75.1375 24.5C74.0527 24.5 73.2001 24.159 72.5796 23.4771C71.963 22.7952 71.6547 21.8562 71.6547 20.66V20.66ZM92.2433 12.6257C92.544 11.8371 92.6943 11.1019 92.6943 10.42C92.6943 9.16286 92.1824 8.53429 91.1585 8.53429C90.6256 8.53429 90.1403 8.77429 89.7025 9.25429C89.2648 9.73429 89.0459 10.2714 89.0459 10.8657C89.0459 11.2924 89.2172 11.6771 89.5598 12.02C90.0508 12.4886 90.9244 13.1076 92.1805 13.8771C93.4366 14.6429 94.3044 15.3419 94.784 15.9743C95.2636 16.6029 95.5034 17.3495 95.5034 18.2143C95.5034 19.0752 95.296 19.9019 94.8811 20.6943C94.4662 21.4829 93.8857 22.1533 93.1397 22.7057C91.541 23.9019 89.4627 24.5 86.9049 24.5C85.5193 24.5 84.2937 24.1381 83.2279 23.4143C82.1621 22.7095 81.6293 21.94 81.6293 21.1057C81.6293 20.2752 81.9338 19.6143 82.5428 19.1229C83.148 18.6314 83.8978 18.3857 84.7923 18.3857C85.6906 18.3857 86.4158 18.5571 86.9677 18.9C86.6898 19.6048 86.5509 20.1914 86.5509 20.66C86.5509 22.0695 87.1485 22.7743 88.3437 22.7743C88.8537 22.7743 89.28 22.6143 89.6226 22.2943C89.9652 21.9743 90.1365 21.5362 90.1365 20.98C90.1365 19.8905 89.2191 18.7705 87.3845 17.62C85.8924 16.6371 84.975 15.9552 84.6325 15.5743C84.0577 14.8886 83.7703 14.119 83.7703 13.2657C83.7703 12.4124 83.974 11.5819 84.3813 10.7743C84.7847 9.96286 85.3595 9.26952 86.1055 8.69429C87.6623 7.49809 89.7939 6.9 92.5002 6.9C93.8857 6.9 94.9896 7.17809 95.8117 7.73429C96.6301 8.28667 97.0393 9.03333 97.0393 9.97428C97.0393 10.9114 96.7576 11.6467 96.1943 12.18C95.6271 12.7133 94.8335 12.98 93.8134 12.98C93.1092 12.98 92.5859 12.8619 92.2433 12.6257V12.6257ZM108.487 22.5171C107.463 23.839 105.684 24.5 103.149 24.5C101.828 24.5 100.688 24.1 99.7285 23.3C98.7693 22.5 98.2897 21.5248 98.2897 20.3743C98.2897 19.7343 98.3201 19.2543 98.381 18.9343L100.528 7.54L107.014 6.9L104.684 19.2543C104.597 19.7229 104.553 20.0962 104.553 20.3743C104.553 21.6086 104.926 22.2257 105.672 22.2257C106.506 22.2257 107.219 21.6619 107.813 20.5343C108.007 20.1686 108.146 19.7514 108.23 19.2829L110.502 7.54L116.8 6.9L114.436 19.38C114.372 19.7 114.339 20.0314 114.339 20.3743C114.339 20.7133 114.434 21.0695 114.625 21.4429C114.819 21.8162 115.224 22.0467 115.841 22.1343C115.711 22.6448 115.424 23.0714 114.979 23.4143C114.038 24.1381 113.062 24.5 112.05 24.5C111.037 24.5 110.234 24.319 109.64 23.9571C109.043 23.5952 108.658 23.1152 108.487 22.5171Z"/></svg>