<svg width="157" height="33" viewBox="0 0 157 33" fill="none" xmlns="http://www.w3.org/2000/svg">
<path d="M22.6939 27.0265C22.6939 28.3106 23.3386 29.1423 24.6279 29.5218C24.3107 30.5979 23.5381 31.427 22.3102 32.0092C21.2767 32.5031 20.1945 32.75 19.0638 32.75C17.9331 32.75 17.0735 32.5966 16.4851 32.2899C15.8967 31.9832 15.4439 31.583 15.1267 31.0891C14.6151 30.3353 14.3592 29.2437 14.3592 27.8141C14.3592 26.972 14.5869 25.3864 15.0423 23.0576L15.6486 19.7358C16.1346 17.2041 16.3777 15.4731 16.3777 14.5426C16.3777 12.9103 15.9325 12.0941 15.0423 12.0941C13.9269 12.0941 13.0111 12.9233 12.2948 14.5815C12.0082 15.2262 11.7652 16.0267 11.5657 16.9832L8.64165 31.8767L0 32.75L6.06297 1.31L14.6969 0.436668L14.3592 2.18333C13.556 6.66436 12.809 9.66385 12.1183 11.1818C13.7248 9.54948 16.0042 8.73333 18.9563 8.73333C22.0774 8.73333 23.9244 9.78081 24.4974 11.8758C24.697 12.5464 24.7967 13.1728 24.7967 13.755C24.7967 14.3372 24.7763 14.8545 24.7353 15.3067C24.6944 15.759 24.6023 16.3906 24.4591 17.2015L23.8988 20.3518L22.9088 25.2799C22.7655 25.9505 22.6939 26.5327 22.6939 27.0265V27.0265ZM38.4269 29.475C37.5366 31.6583 35.6743 32.75 32.8398 32.75C31.3765 32.75 30.1869 32.2406 29.2711 31.2217C28.4985 30.3171 28.1122 29.4152 28.1122 28.5159C28.1122 26.1558 28.6417 22.6755 29.7008 18.0749L31.2895 9.60667L40.0155 8.73333L37.3908 22.5351C36.9048 24.6873 36.6617 26.1428 36.6617 26.9018C36.6617 28.5601 37.2501 29.4178 38.4269 29.475V29.475ZM32.0646 3.54012C32.0646 2.40167 32.5302 1.52833 33.4614 0.920119C34.3926 0.306707 35.531 0 36.8766 0C38.2222 0 39.3044 0.306707 40.123 0.920119C40.9365 1.52833 41.3433 2.40167 41.3433 3.54012C41.3433 4.67337 40.893 5.53111 39.9925 6.11333C39.092 6.69556 37.9664 6.98667 36.6157 6.98667C35.2701 6.98667 34.1752 6.69556 33.3309 6.11333C32.4867 5.53111 32.0646 4.67337 32.0646 3.54012V3.54012ZM73.0242 32.75C69.5552 32.75 67.8207 31.3828 67.8207 28.6485C67.8207 27.4528 68.0715 25.6984 68.5729 23.3851C69.0743 21.0718 69.412 19.4473 69.5859 18.5115C69.985 16.3906 70.1845 14.9948 70.1845 14.3242C70.1845 12.8375 69.6396 12.0941 68.5498 12.0941C67.8335 12.0941 67.1326 12.5958 66.447 13.599C65.7563 14.6075 65.2549 16.1151 64.9428 18.1217L62.2797 31.8767L53.899 32.75L56.2167 20.8742C56.4725 19.5642 56.7155 18.1659 56.9458 16.6791C57.176 15.1976 57.2912 14.3398 57.2912 14.1059C57.2912 12.7647 56.8051 12.0941 55.833 12.0941C55.1729 12.0941 54.4848 12.5906 53.7685 13.5835C53.0522 14.5712 52.4919 16.0839 52.0877 18.1217L49.4707 31.8767L41.0056 32.75L45.5183 9.60667L52.5175 8.73333L51.7884 13.1468C52.5354 11.5717 53.5971 10.4436 54.9734 9.76262C56.3446 9.07643 58.1047 8.73333 60.2536 8.73333C61.4866 8.73333 62.5048 9.04004 63.3081 9.65345C64.1113 10.2617 64.6409 11.0622 64.8967 12.0551C65.3828 11.0362 66.25 10.2279 67.4984 9.63006C68.7468 9.03224 70.1359 8.73333 71.6657 8.73333C73.2007 8.73333 74.3467 8.89968 75.104 9.23238C75.8663 9.57028 76.4752 10.0147 76.9305 10.5658C77.7031 11.5847 78.0894 13.0272 78.0894 14.8935C78.0894 16.7233 77.7031 19.546 76.9305 23.3617C76.5315 25.2227 76.3319 26.4963 76.3319 27.1825C76.3319 27.8687 76.5238 28.4145 76.9075 28.82C77.2964 29.2255 77.7773 29.4594 78.3503 29.5218C78.0638 30.5095 77.4268 31.2944 76.4394 31.8767C75.4519 32.4589 74.3135 32.75 73.0242 32.75V32.75ZM91.9728 29.475C91.0877 31.6583 89.2253 32.75 86.3857 32.75C84.9275 32.75 83.7379 32.2406 82.817 31.2217C82.0444 30.3171 81.6581 29.4152 81.6581 28.5159C81.6581 26.1558 82.1877 22.6755 83.2468 18.0749L84.8431 9.60667L93.5615 8.73333L90.9444 22.5351C90.4584 24.6873 90.2153 26.1428 90.2153 26.9018C90.2153 28.5601 90.8012 29.4178 91.9728 29.475V29.475ZM85.6105 3.54012C85.6105 2.40167 86.0761 1.52833 87.0073 0.920119C87.9385 0.306707 89.0795 0 90.4302 0C91.7759 0 92.8554 0.306707 93.6689 0.920119C94.4875 1.52833 94.8969 2.40167 94.8969 3.54012C94.8969 4.67337 94.4466 5.53111 93.5461 6.11333C92.6405 6.69556 91.5149 6.98667 90.1693 6.98667C88.8237 6.98667 87.7287 6.69556 86.8845 6.11333C86.0352 5.53111 85.6105 4.67337 85.6105 3.54012V3.54012ZM96.3167 27.51C96.3167 26.725 96.5162 25.3423 96.9153 23.3617L99.1947 11.5717H96.662L96.8309 10.2617C100.269 9.21159 103.651 7.40774 106.977 4.85012H109.034L108.005 9.60667H111.359L110.968 11.5717H107.66L105.472 23.3617C105.099 25.1655 104.912 26.3741 104.912 26.9876C104.912 28.3859 105.513 29.2307 106.716 29.5218C106.429 30.5095 105.769 31.2944 104.736 31.8767C103.707 32.4589 102.461 32.75 100.998 32.75C99.54 32.75 98.3939 32.2847 97.5599 31.3542C96.7311 30.4237 96.3167 29.1423 96.3167 27.51V27.51ZM123.991 16.5465C124.396 15.4705 124.598 14.4672 124.598 13.5367C124.598 11.8212 123.91 10.9635 122.533 10.9635C121.817 10.9635 121.165 11.291 120.576 11.946C119.988 12.601 119.694 13.3339 119.694 14.1449C119.694 14.7271 119.924 15.2521 120.384 15.72C121.044 16.3594 122.219 17.2041 123.907 18.2542C125.595 19.2991 126.762 20.253 127.407 21.1159C128.051 21.9737 128.374 22.9926 128.374 24.1726C128.374 25.3475 128.095 26.4755 127.537 27.5568C126.979 28.6329 126.199 29.5478 125.196 30.3015C123.047 31.9339 120.254 32.75 116.816 32.75C114.953 32.75 113.306 32.2562 111.873 31.2685C110.441 30.3067 109.724 29.2567 109.724 28.1182C109.724 26.985 110.134 26.083 110.952 25.4124C111.766 24.7418 112.774 24.4065 113.976 24.4065C115.183 24.4065 116.158 24.6405 116.9 25.1083C116.527 26.07 116.34 26.8706 116.34 27.51C116.34 29.4334 117.143 30.3951 118.75 30.3951C119.435 30.3951 120.008 30.1768 120.469 29.7401C120.929 29.3035 121.159 28.7056 121.159 27.9467C121.159 26.4599 119.926 24.9316 117.46 23.3617C115.455 22.0205 114.222 21.09 113.761 20.5701C112.989 19.6344 112.602 18.5843 112.602 17.4199C112.602 16.2554 112.876 15.1222 113.423 14.0201C113.966 12.9129 114.738 11.9667 115.741 11.1818C117.834 9.54948 120.699 8.73333 124.337 8.73333C126.199 8.73333 127.683 9.11282 128.788 9.87178C129.888 10.6256 130.438 11.6444 130.438 12.9284C130.438 14.2073 130.059 15.2106 129.302 15.9383C128.54 16.6661 127.473 17.03 126.102 17.03C125.155 17.03 124.452 16.8688 123.991 16.5465V16.5465ZM145.826 30.0442C144.449 31.8481 142.057 32.75 138.65 32.75C136.875 32.75 135.342 32.2042 134.053 31.1125C132.764 30.0208 132.119 28.69 132.119 27.1201C132.119 26.2468 132.16 25.5918 132.242 25.1551L135.127 9.60667L143.846 8.73333L140.714 25.5918C140.597 26.2312 140.538 26.7406 140.538 27.1201C140.538 28.8044 141.039 29.6465 142.042 29.6465C143.163 29.6465 144.122 28.8772 144.92 27.3385C145.181 26.8394 145.368 26.2702 145.48 25.6308L148.535 9.60667L157 8.73333L153.823 25.7633C153.736 26.2 153.692 26.6523 153.692 27.1201C153.692 27.5828 153.82 28.0688 154.076 28.5783C154.337 29.0877 154.882 29.4022 155.711 29.5218C155.537 30.2184 155.15 30.8006 154.552 31.2685C153.288 32.2562 151.976 32.75 150.615 32.75C149.254 32.75 148.174 32.5031 147.376 32.0092C146.573 31.5154 146.056 30.8604 145.826 30.0442Z" fill="#DD2D4A"/>
</svg>
