<svg width="200" height="400" viewBox="0 0 200 400" fill="none" xmlns="http://www.w3.org/2000/svg">
<rect width="200" height="400" fill="#CECECE"/>
<path d="M43.6939 194.027C43.6939 195.311 44.3386 196.142 45.6279 196.522C45.3107 197.598 44.5381 198.427 43.3102 199.009C42.2767 199.503 41.1945 199.75 40.0638 199.75C38.9331 199.75 38.0735 199.597 37.4851 199.29C36.8967 198.983 36.4439 198.583 36.1267 198.089C35.6151 197.335 35.3592 196.244 35.3592 194.814C35.3592 193.972 35.5869 192.386 36.0423 190.058L36.6486 186.736C37.1346 184.204 37.3777 182.473 37.3777 181.543C37.3777 179.91 36.9325 179.094 36.0423 179.094C34.9269 179.094 34.0111 179.923 33.2948 181.582C33.0082 182.226 32.7652 183.027 32.5657 183.983L29.6416 198.877L21 199.75L27.063 168.31L35.6969 167.437L35.3592 169.183C34.556 173.664 33.809 176.664 33.1183 178.182C34.7248 176.549 37.0042 175.733 39.9563 175.733C43.0774 175.733 44.9244 176.781 45.4974 178.876C45.697 179.546 45.7967 180.173 45.7967 180.755C45.7967 181.337 45.7763 181.854 45.7353 182.307C45.6944 182.759 45.6023 183.391 45.4591 184.202L44.8988 187.352L43.9088 192.28C43.7655 192.95 43.6939 193.533 43.6939 194.027V194.027ZM59.4269 196.475C58.5366 198.658 56.6743 199.75 53.8398 199.75C52.3765 199.75 51.1869 199.241 50.2711 198.222C49.4985 197.317 49.1122 196.415 49.1122 195.516C49.1122 193.156 49.6417 189.675 50.7008 185.075L52.2895 176.607L61.0155 175.733L58.3908 189.535C57.9048 191.687 57.6617 193.143 57.6617 193.902C57.6617 195.56 58.2501 196.418 59.4269 196.475V196.475ZM53.0646 170.54C53.0646 169.402 53.5302 168.528 54.4614 167.92C55.3926 167.307 56.531 167 57.8766 167C59.2222 167 60.3044 167.307 61.123 167.92C61.9365 168.528 62.3433 169.402 62.3433 170.54C62.3433 171.673 61.893 172.531 60.9925 173.113C60.092 173.696 58.9664 173.987 57.6157 173.987C56.2701 173.987 55.1752 173.696 54.3309 173.113C53.4867 172.531 53.0646 171.673 53.0646 170.54V170.54ZM94.0242 199.75C90.5552 199.75 88.8207 198.383 88.8207 195.648C88.8207 194.453 89.0715 192.698 89.5729 190.385C90.0743 188.072 90.412 186.447 90.5859 185.512C90.985 183.391 91.1845 181.995 91.1845 181.324C91.1845 179.837 90.6396 179.094 89.5498 179.094C88.8335 179.094 88.1326 179.596 87.447 180.599C86.7563 181.608 86.2549 183.115 85.9428 185.122L83.2797 198.877L74.899 199.75L77.2167 187.874C77.4725 186.564 77.7155 185.166 77.9458 183.679C78.176 182.198 78.2912 181.34 78.2912 181.106C78.2912 179.765 77.8051 179.094 76.833 179.094C76.1729 179.094 75.4848 179.591 74.7685 180.583C74.0522 181.571 73.4919 183.084 73.0877 185.122L70.4707 198.877L62.0056 199.75L66.5183 176.607L73.5175 175.733L72.7884 180.147C73.5354 178.572 74.5971 177.444 75.9734 176.763C77.3446 176.076 79.1047 175.733 81.2536 175.733C82.4866 175.733 83.5048 176.04 84.3081 176.653C85.1113 177.262 85.6409 178.062 85.8967 179.055C86.3828 178.036 87.25 177.228 88.4984 176.63C89.7468 176.032 91.1359 175.733 92.6657 175.733C94.2007 175.733 95.3467 175.9 96.104 176.232C96.8663 176.57 97.4752 177.015 97.9305 177.566C98.7031 178.585 99.0894 180.027 99.0894 181.893C99.0894 183.723 98.7031 186.546 97.9305 190.362C97.5315 192.223 97.3319 193.496 97.3319 194.183C97.3319 194.869 97.5238 195.415 97.9075 195.82C98.2964 196.225 98.7773 196.459 99.3503 196.522C99.0638 197.509 98.4268 198.294 97.4394 198.877C96.4519 199.459 95.3135 199.75 94.0242 199.75V199.75ZM112.973 196.475C112.088 198.658 110.225 199.75 107.386 199.75C105.928 199.75 104.738 199.241 103.817 198.222C103.044 197.317 102.658 196.415 102.658 195.516C102.658 193.156 103.188 189.675 104.247 185.075L105.843 176.607L114.561 175.733L111.944 189.535C111.458 191.687 111.215 193.143 111.215 193.902C111.215 195.56 111.801 196.418 112.973 196.475V196.475ZM106.611 170.54C106.611 169.402 107.076 168.528 108.007 167.92C108.939 167.307 110.079 167 111.43 167C112.776 167 113.855 167.307 114.669 167.92C115.488 168.528 115.897 169.402 115.897 170.54C115.897 171.673 115.447 172.531 114.546 173.113C113.641 173.696 112.515 173.987 111.169 173.987C109.824 173.987 108.729 173.696 107.885 173.113C107.035 172.531 106.611 171.673 106.611 170.54V170.54ZM117.317 194.51C117.317 193.725 117.516 192.342 117.915 190.362L120.195 178.572H117.662L117.831 177.262C121.269 176.212 124.651 174.408 127.977 171.85H130.034L129.005 176.607H132.359L131.968 178.572H128.66L126.472 190.362C126.099 192.166 125.912 193.374 125.912 193.988C125.912 195.386 126.513 196.231 127.716 196.522C127.429 197.509 126.769 198.294 125.736 198.877C124.707 199.459 123.461 199.75 121.998 199.75C120.54 199.75 119.394 199.285 118.56 198.354C117.731 197.424 117.317 196.142 117.317 194.51V194.51ZM144.991 183.547C145.396 182.47 145.598 181.467 145.598 180.537C145.598 178.821 144.91 177.963 143.533 177.963C142.817 177.963 142.165 178.291 141.576 178.946C140.988 179.601 140.694 180.334 140.694 181.145C140.694 181.727 140.924 182.252 141.384 182.72C142.044 183.359 143.219 184.204 144.907 185.254C146.595 186.299 147.762 187.253 148.407 188.116C149.051 188.974 149.374 189.993 149.374 191.173C149.374 192.347 149.095 193.476 148.537 194.557C147.979 195.633 147.199 196.548 146.196 197.302C144.047 198.934 141.254 199.75 137.816 199.75C135.953 199.75 134.306 199.256 132.873 198.268C131.441 197.307 130.724 196.257 130.724 195.118C130.724 193.985 131.134 193.083 131.952 192.412C132.766 191.742 133.774 191.407 134.976 191.407C136.183 191.407 137.158 191.64 137.9 192.108C137.527 193.07 137.34 193.871 137.34 194.51C137.34 196.433 138.143 197.395 139.75 197.395C140.435 197.395 141.008 197.177 141.469 196.74C141.929 196.303 142.159 195.706 142.159 194.947C142.159 193.46 140.926 191.932 138.46 190.362C136.455 189.02 135.222 188.09 134.761 187.57C133.989 186.634 133.602 185.584 133.602 184.42C133.602 183.255 133.876 182.122 134.423 181.02C134.966 179.913 135.738 178.967 136.741 178.182C138.834 176.549 141.699 175.733 145.337 175.733C147.199 175.733 148.683 176.113 149.788 176.872C150.888 177.626 151.438 178.644 151.438 179.928C151.438 181.207 151.059 182.211 150.302 182.938C149.54 183.666 148.473 184.03 147.102 184.03C146.155 184.03 145.452 183.869 144.991 183.547V183.547ZM166.826 197.044C165.449 198.848 163.057 199.75 159.65 199.75C157.875 199.75 156.342 199.204 155.053 198.112C153.764 197.021 153.119 195.69 153.119 194.12C153.119 193.247 153.16 192.592 153.242 192.155L156.127 176.607L164.846 175.733L161.714 192.592C161.597 193.231 161.538 193.741 161.538 194.12C161.538 195.804 162.039 196.647 163.042 196.647C164.163 196.647 165.122 195.877 165.92 194.338C166.181 193.839 166.368 193.27 166.48 192.631L169.535 176.607L178 175.733L174.823 192.763C174.736 193.2 174.692 193.652 174.692 194.12C174.692 194.583 174.82 195.069 175.076 195.578C175.337 196.088 175.882 196.402 176.711 196.522C176.537 197.218 176.15 197.801 175.552 198.268C174.288 199.256 172.976 199.75 171.615 199.75C170.254 199.75 169.174 199.503 168.376 199.009C167.573 198.515 167.056 197.86 166.826 197.044Z" fill="#DD2D4A"/>
<circle cx="63.5" cy="219.5" r="9.5" fill="#DD2D4A"/>
<circle cx="99.5" cy="219.5" r="9.5" fill="#DD2D4A" fill-opacity="0.83"/>
<circle cx="135.5" cy="219.5" r="9.5" fill="#DD2D4A" fill-opacity="0.56"/>
</svg>
